<?xml version="1.0" encoding="utf-8"?>
<!-- Generator: Adobe Illustrator 16.0.0, SVG Export Plug-In . SVG Version: 6.00 Build 0)  -->
<!DOCTYPE svg PUBLIC "-//W3C//DTD SVG 1.1//EN" "http://www.w3.org/Graphics/SVG/1.1/DTD/svg11.dtd">
<svg version="1.1"
	 id="svg5121" inkscape:version="0.91 r13725" sodipodi:docname="about_icon.svg" xmlns:inkscape="http://www.inkscape.org/namespaces/inkscape" xmlns:svg="http://www.w3.org/2000/svg" xmlns:sodipodi="http://sodipodi.sourceforge.net/DTD/sodipodi-0.dtd" xmlns:dc="http://purl.org/dc/elements/1.1/" xmlns:rdf="http://www.w3.org/1999/02/22-rdf-syntax-ns#" xmlns:cc="http://creativecommons.org/ns#"
	 xmlns="http://www.w3.org/2000/svg" xmlns:xlink="http://www.w3.org/1999/xlink" x="0px" y="0px" width="60px" height="35px"
	 viewBox="0 0 60 35" enable-background="new 0 0 60 35" xml:space="preserve">
<sodipodi:namedview  units="px" pagecolor="#ffffff" inkscape:cx="38.263372" showgrid="false" inkscape:cy="24.175702" showguides="true" bordercolor="#666666" inkscape:zoom="11.2" borderopacity="1.0" inkscape:pageshadow="2" inkscape:pageopacity="0.0" inkscape:document-units="px" inkscape:current-layer="layer1" inkscape:window-width="1366" inkscape:window-height="746" inkscape:window-x="-8" inkscape:window-y="-8" inkscape:window-maximized="1" inkscape:guide-bbox="true" id="base">
	</sodipodi:namedview>
<g>
	<path fill="#51E6A6" d="M52.179,10.553c-0.026-0.146-0.072-0.219-0.226-0.245c-0.073-0.021-0.166-0.046-0.266-0.073
		c-1.304-0.192-2.626-0.418-3.95-0.492c-1.049-0.073-2.133-0.12-3.183-0.173c-2.035-0.093-4.068-0.046-6.103,0.2
		c-1.25,0.172-2.479,0.392-3.677,0.783c-0.593,0.2-1.203,0.42-1.795,0.612c-0.95,0.293-1.908,0.419-2.892,0.247
		c-0.585-0.12-1.177-0.274-1.743-0.466c-1.023-0.347-2.053-0.659-3.137-0.858c-2.081-0.392-4.162-0.564-6.123-0.538
		c-1.596,0-3.044,0.048-4.467,0.22c-1.178,0.146-2.328,0.293-3.504,0.465c-0.246,0.027-0.492,0.1-0.737,0.173
		c-0.12,0.026-0.22,0.121-0.22,0.266c-0.02,0.692-0.046,1.377-0.046,2.061c0,0.101,0.026,0.2,0.026,0.319
		c0.02,0.073,0.073,0.146,0.146,0.174c0.093,0.047,0.192,0.072,0.266,0.146c0.373,0.271,0.565,0.665,0.712,1.075
		c0.099,0.3,0.172,0.612,0.272,0.932c0.046,0.173,0.12,0.373,0.146,0.564c0.219,0.91,0.392,1.815,0.611,2.7
		c0.199,0.856,0.439,1.688,0.858,2.472c0.465,0.885,1.13,1.569,2.034,1.942c0.564,0.245,1.156,0.392,1.742,0.484
		c1.077,0.173,2.161,0.199,3.237,0.1c1.104-0.073,2.18-0.246,3.238-0.564c0.784-0.22,1.515-0.559,2.153-1.077
		c0.957-0.831,1.716-1.788,2.326-2.918c0.592-1.104,1.011-2.281,1.377-3.478c0.099-0.346,0.193-0.69,0.339-1.03
		c0.173-0.492,0.545-0.811,1.058-0.884c0.172-0.027,0.346-0.047,0.511-0.027c0.42,0.027,0.785,0.101,1.057,0.445
		c0.12,0.147,0.22,0.293,0.294,0.466c0.146,0.319,0.299,0.659,0.392,1.004c0.465,1.47,1.084,2.892,1.868,4.241
		c0.658,1.104,1.516,2.008,2.646,2.62c0.804,0.445,1.667,0.736,2.572,0.91c1.35,0.246,2.719,0.319,4.067,0.272
		c0.831-0.054,1.669-0.152,2.454-0.399c0.81-0.238,1.542-0.631,2.081-1.323c0.346-0.438,0.591-0.93,0.811-1.441
		c0.438-1.078,0.737-2.234,0.977-3.357c0.153-0.565,0.272-1.131,0.393-1.695c0.08-0.293,0.173-0.564,0.245-0.858
		c0.073-0.271,0.146-0.538,0.32-0.783c0.173-0.22,0.346-0.466,0.638-0.565c0.127-0.047,0.199-0.12,0.219-0.247
		c0.027-0.092,0.027-0.191,0.027-0.266c0-0.418,0-0.83,0-1.249C52.226,11.138,52.179,10.847,52.179,10.553 M11.874,11.856
		c-0.465,0-0.805-0.079-0.805-0.199c0-0.1,0.339-0.199,0.805-0.199c0.445,0,0.785,0.1,0.785,0.199
		C12.659,11.777,12.319,11.856,11.874,11.856 M27.469,16.218c-0.299,1.196-0.738,2.327-1.376,3.403
		c-0.338,0.592-0.73,1.13-1.223,1.596c-0.638,0.611-1.423,0.983-2.281,1.203c-1.741,0.466-3.483,0.565-5.245,0.292
		c-0.372-0.046-0.711-0.119-1.03-0.219c-0.711-0.173-1.25-0.593-1.642-1.203c-0.465-0.658-0.738-1.396-0.931-2.181
		c-0.226-1.004-0.373-2.035-0.465-3.065c-0.073-0.611-0.053-1.202,0.02-1.787c0.053-0.319,0.053-0.612,0.125-0.912
		c0.247-1.05,0.904-1.714,1.935-1.979c0.958-0.247,1.915-0.393,2.892-0.493c0.739-0.046,1.449-0.072,1.915-0.1
		c1.668,0.027,3.084,0.127,4.46,0.445c0.565,0.12,1.13,0.24,1.642,0.513c0.246,0.146,0.492,0.292,0.711,0.491
		c0.366,0.294,0.565,0.712,0.638,1.151C27.789,14.356,27.689,15.287,27.469,16.218 M49.062,15.778
		c-0.047,1.443-0.293,2.866-0.805,4.235c-0.199,0.538-0.492,1.058-0.932,1.476c-0.472,0.466-1.056,0.711-1.694,0.877
		c-0.785,0.227-1.596,0.272-2.426,0.272c-1.225,0.027-2.453-0.146-3.649-0.393c-1.178-0.245-2.134-0.884-2.899-1.814
		c-0.978-1.222-1.59-2.598-1.934-4.114c-0.174-0.691-0.293-1.402-0.293-2.107c0.027-0.299,0.047-0.618,0.1-0.937
		c0.146-0.758,0.611-1.251,1.323-1.518c0.685-0.298,1.442-0.464,2.181-0.618c0.83-0.165,1.668-0.291,2.499-0.338
		c0.665-0.047,1.322-0.073,1.769-0.073c1.761,0.073,3.304,0.192,4.799,0.639c0.3,0.072,0.538,0.192,0.812,0.318
		c0.245,0.119,0.438,0.318,0.565,0.559c0.12,0.273,0.266,0.545,0.365,0.811c0.146,0.346,0.173,0.686,0.173,1.057
		C49.042,14.648,49.062,15.213,49.062,15.778 M50.464,11.856c-0.472,0-0.811-0.079-0.811-0.199c0-0.1,0.339-0.199,0.811-0.199
		c0.438,0,0.784,0.1,0.784,0.199C51.248,11.777,50.902,11.856,50.464,11.856"/>
</g>
</svg>
