<?xml version="1.0" encoding="utf-8"?>
<!-- Generator: Adobe Illustrator 16.0.0, SVG Export Plug-In . SVG Version: 6.00 Build 0)  -->
<!DOCTYPE svg PUBLIC "-//W3C//DTD SVG 1.1//EN" "http://www.w3.org/Graphics/SVG/1.1/DTD/svg11.dtd">
<svg version="1.1"
	 id="svg5124" inkscape:version="0.91 r13725" sodipodi:docname="portfolio_icon.svg" xmlns:inkscape="http://www.inkscape.org/namespaces/inkscape" xmlns:svg="http://www.w3.org/2000/svg" xmlns:sodipodi="http://sodipodi.sourceforge.net/DTD/sodipodi-0.dtd" xmlns:dc="http://purl.org/dc/elements/1.1/" xmlns:rdf="http://www.w3.org/1999/02/22-rdf-syntax-ns#" xmlns:cc="http://creativecommons.org/ns#"
	 xmlns="http://www.w3.org/2000/svg" xmlns:xlink="http://www.w3.org/1999/xlink" x="0px" y="0px" width="60px" height="35px"
	 viewBox="0 0 60 35" enable-background="new 0 0 60 35" xml:space="preserve">
<sodipodi:namedview  units="px" pagecolor="#ffffff" inkscape:cx="21.445567" showgrid="false" inkscape:cy="19.434438" showguides="false" bordercolor="#666666" inkscape:zoom="7.9195959" borderopacity="1.0" inkscape:pageshadow="2" inkscape:snap-global="true" inkscape:pageopacity="0.0" inkscape:document-units="px" inkscape:current-layer="layer1" inkscape:window-width="1366" inkscape:window-height="746" inkscape:window-x="-8" inkscape:window-y="-8" inkscape:window-maximized="1" inkscape:guide-bbox="true" id="base" inkscape:object-nodes="true" inkscape:snap-smooth-nodes="true">
	<sodipodi:guide  id="guide4320" orientation="1,0" position="23.675781,6.4492192"></sodipodi:guide>
	<sodipodi:guide  id="guide4143" orientation="0,1" position="23.675781,18.928572"></sodipodi:guide>
	<sodipodi:guide  id="guide4145" orientation="0,1" position="14.598215,17.455358"></sodipodi:guide>
	<sodipodi:guide  id="guide4147" orientation="0,1" position="32.767858,22.500001"></sodipodi:guide>
</sodipodi:namedview>
<g>
	<path fill="#51E6A6" d="M28.611,23.713c-0.408,0-0.744-0.336-0.744-0.744v-1.312h4.263v1.312c0,0.408-0.335,0.744-0.744,0.744
		H28.611z M33.617,21.654v1.314c0,1.23-1.001,2.23-2.231,2.23h-2.774c-1.229,0-2.231-1-2.231-2.23v-1.314h-6.815
		c-0.194,0-0.385-0.018-0.571-0.055v6.455c0,0.82,0.668,1.486,1.488,1.486h9.496h0.045h9.496c0.821,0,1.487-0.666,1.487-1.486V21.6
		c-0.186,0.035-0.377,0.055-0.569,0.055H33.617z M41.924,11.665v7.015c0,0.619-0.38,1.15-0.918,1.373
		c-0.176,0.072-0.369,0.113-0.569,0.113H30.022h-0.045H19.564c-0.204,0-0.395-0.039-0.571-0.113
		c-0.537-0.223-0.917-0.754-0.917-1.373v-7.015c0-0.82,0.667-1.487,1.488-1.487h1.616c0.082-0.253,0.188-0.501,0.32-0.744
		c0.081-0.151,0.17-0.3,0.27-0.449c0.067-0.099,0.14-0.198,0.216-0.295c0.464-0.598,1.068-1.133,1.808-1.597
		c1.669-1.046,3.863-1.626,6.184-1.634l0,0c0.008,0,0.015,0,0.022,0s0.015,0,0.022,0l0,0c2.321,0.008,4.515,0.585,6.184,1.631
		c0.739,0.465,1.344,1,1.808,1.598c0.074,0.097,0.146,0.195,0.216,0.295c0.099,0.146,0.188,0.298,0.271,0.449
		c0.131,0.242,0.237,0.49,0.319,0.743h1.616C41.257,10.177,41.924,10.841,41.924,11.665z M36.64,10.177
		c-0.161-0.258-0.369-0.506-0.622-0.744c-0.248-0.232-0.535-0.454-0.865-0.659c-0.045-0.027-0.089-0.058-0.137-0.085
		C33.67,7.888,31.896,7.447,30,7.442c-1.896,0.003-3.669,0.444-5.016,1.247c-0.045,0.027-0.092,0.055-0.137,0.085
		c-0.33,0.205-0.617,0.429-0.865,0.659c-0.253,0.238-0.461,0.486-0.622,0.744H36.64z"/>
</g>
</svg>
